<svg width="24" height="24" viewBox="0 0 24 24" fill="none" xmlns="http://www.w3.org/2000/svg">
<path d="M16 7C16 6.73478 16.1054 6.48043 16.2929 6.29289C16.4804 6.10536 16.7348 6 17 6C17.2652 6 17.5196 6.10536 17.7071 6.29289C17.8946 6.48043 18 6.73478 18 7C18 7.26522 17.8946 7.51957 17.7071 7.70711C17.5196 7.89464 17.2652 8 17 8C16.7348 8 16.4804 7.89464 16.2929 7.70711C16.1054 7.51957 16 7.26522 16 7Z" fill="#8D775D"/>
<path fill-rule="evenodd" clip-rule="evenodd" d="M12 7.25C10.7402 7.25 9.53204 7.75045 8.64124 8.64124C7.75045 9.53204 7.25 10.7402 7.25 12C7.25 13.2598 7.75045 14.468 8.64124 15.3588C9.53204 16.2496 10.7402 16.75 12 16.75C13.2598 16.75 14.468 16.2496 15.3588 15.3588C16.2496 14.468 16.75 13.2598 16.75 12C16.75 10.7402 16.2496 9.53204 15.3588 8.64124C14.468 7.75045 13.2598 7.25 12 7.25ZM8.75 12C8.75 11.138 9.09241 10.3114 9.7019 9.7019C10.3114 9.09241 11.138 8.75 12 8.75C12.862 8.75 13.6886 9.09241 14.2981 9.7019C14.9076 10.3114 15.25 11.138 15.25 12C15.25 12.862 14.9076 13.6886 14.2981 14.2981C13.6886 14.9076 12.862 15.25 12 15.25C11.138 15.25 10.3114 14.9076 9.7019 14.2981C9.09241 13.6886 8.75 12.862 8.75 12Z" fill="#8D775D"/>
<path fill-rule="evenodd" clip-rule="evenodd" d="M17.2581 2.83297C13.7634 2.44557 10.2367 2.44557 6.74206 2.83297C4.73006 3.05797 3.10506 4.64297 2.86906 6.66497C2.45446 10.2096 2.45446 13.7904 2.86906 17.335C3.10506 19.357 4.72906 20.942 6.74206 21.167C10.2367 21.554 13.7634 21.554 17.2581 21.167C19.2701 20.942 20.8951 19.357 21.1311 17.335C21.5457 13.7904 21.5457 10.2096 21.1311 6.66497C20.8951 4.64297 19.2711 3.05797 17.2581 2.83297ZM6.90806 4.32297C10.2924 3.94784 13.7078 3.94784 17.0921 4.32297C18.4221 4.47297 19.4871 5.52197 19.6421 6.83997C20.043 10.2683 20.043 13.7317 19.6421 17.16C19.5619 17.805 19.2666 18.4042 18.8039 18.8607C18.3412 19.3172 17.7381 19.6045 17.0921 19.676C13.7078 20.0511 10.2924 20.0511 6.90806 19.676C6.262 19.6045 5.65891 19.3172 5.19621 18.8607C4.73351 18.4042 4.43823 17.805 4.35806 17.16C3.9571 13.7317 3.9571 10.2683 4.35806 6.83997C4.43823 6.19493 4.73351 5.59575 5.19621 5.13922C5.65891 4.6827 6.262 4.39448 6.90806 4.32297Z" fill="#8D775D"/>
</svg>
