<svg width="26" height="26" viewBox="0 0 26 26" fill="none" xmlns="http://www.w3.org/2000/svg">
<path fill-rule="evenodd" clip-rule="evenodd" d="M12.1322 2.80264C12.3977 2.65523 12.6964 2.57788 13 2.57788C13.3036 2.57788 13.6023 2.65523 13.8677 2.80264L21.6677 7.13597C22.2354 7.45122 22.5875 8.04922 22.5875 8.69922V17.3009C22.5875 17.9509 22.2354 18.5489 21.6677 18.8641L13.8677 23.1975C13.6023 23.3449 13.3036 23.4222 13 23.4222C12.6964 23.4222 12.3977 23.3449 12.1322 23.1975L4.33225 18.8641C4.05342 18.7093 3.8211 18.4827 3.65937 18.2078C3.49765 17.933 3.41241 17.6198 3.4125 17.3009V8.69922C3.4125 8.04922 3.76458 7.45122 4.33225 7.13597L12.1322 2.80264ZM13.0791 4.22397C13.0549 4.2105 13.0277 4.20343 13 4.20343C12.9723 4.20343 12.9451 4.2105 12.9209 4.22397L5.12092 8.5573C5.09579 8.5713 5.07483 8.59171 5.06018 8.61645C5.04552 8.64119 5.0377 8.66938 5.0375 8.69814V17.302C5.0375 17.3605 5.07 17.4146 5.12092 17.4428L12.9209 21.7761C12.9451 21.7896 12.9723 21.7967 13 21.7967C13.0277 21.7967 13.0549 21.7896 13.0791 21.7761L20.8791 17.4428C20.9042 17.4288 20.9252 17.4084 20.9398 17.3837C20.9545 17.3589 20.9623 17.3307 20.9625 17.302V8.69922C20.9625 8.67028 20.9548 8.64187 20.9401 8.61692C20.9254 8.59197 20.9044 8.57139 20.8791 8.5573L13.0791 4.22397Z" fill="#897262"/>
<path fill-rule="evenodd" clip-rule="evenodd" d="M7.85416 13.0001C7.85416 11.6353 8.39631 10.3265 9.36134 9.36143C10.3264 8.3964 11.6352 7.85425 13 7.85425C14.3648 7.85425 15.6736 8.3964 16.6386 9.36143C17.6037 10.3265 18.1458 11.6353 18.1458 13.0001C18.1458 14.3648 17.6037 15.6737 16.6386 16.6387C15.6736 17.6038 14.3648 18.1459 13 18.1459C11.6352 18.1459 10.3264 17.6038 9.36134 16.6387C8.39631 15.6737 7.85416 14.3648 7.85416 13.0001ZM13 9.47925C12.0662 9.47925 11.1707 9.85019 10.5104 10.5105C9.85011 11.1708 9.47916 12.0663 9.47916 13.0001C9.47916 13.9339 9.85011 14.8294 10.5104 15.4897C11.1707 16.15 12.0662 16.5209 13 16.5209C13.9338 16.5209 14.8293 16.15 15.4896 15.4897C16.1499 14.8294 16.5208 13.9339 16.5208 13.0001C16.5208 12.0663 16.1499 11.1708 15.4896 10.5105C14.8293 9.85019 13.9338 9.47925 13 9.47925Z" fill="#897262"/>
</svg>
