<svg width="62" height="62" viewBox="0 0 62 62" fill="none" xmlns="http://www.w3.org/2000/svg">
<path d="M56.1875 15.5C56.1875 14.9861 55.9834 14.4933 55.62 14.13C55.2567 13.7666 54.7639 13.5625 54.25 13.5625H46.5C45.9861 13.5625 45.4933 13.7666 45.13 14.13C44.7666 14.4933 44.5625 14.9861 44.5625 15.5V29.0625H40.6875V5.8125C40.6875 5.29864 40.4834 4.80583 40.12 4.44248C39.7567 4.07913 39.2639 3.875 38.75 3.875H31C30.4861 3.875 29.9933 4.07913 29.63 4.44248C29.2666 4.80583 29.0625 5.29864 29.0625 5.8125V29.0625H25.1875V9.6875C25.1875 9.17364 24.9834 8.68083 24.62 8.31748C24.2567 7.95413 23.7639 7.75 23.25 7.75H15.5C14.9861 7.75 14.4933 7.95413 14.13 8.31748C13.7666 8.68083 13.5625 9.17364 13.5625 9.6875V29.0625H5.8125V52.3125C5.8125 52.8264 6.01663 53.3192 6.37998 53.6825C6.74333 54.0459 7.23614 54.25 7.75 54.25H15.5C16.0139 54.25 16.5067 54.0459 16.87 53.6825C17.2334 53.3192 17.4375 52.8264 17.4375 52.3125V32.9375H21.3125V42.625C21.3125 43.1389 21.5166 43.6317 21.88 43.995C22.2433 44.3584 22.7361 44.5625 23.25 44.5625H31C31.5139 44.5625 32.0067 44.3584 32.37 43.995C32.7334 43.6317 32.9375 43.1389 32.9375 42.625V32.9375H36.8125V56.1875C36.8125 56.7014 37.0166 57.1942 37.38 57.5575C37.7433 57.9209 38.2361 58.125 38.75 58.125H46.5C47.0139 58.125 47.5067 57.9209 47.87 57.5575C48.2334 57.1942 48.4375 56.7014 48.4375 56.1875V32.9375H56.1875V15.5ZM13.5625 50.375H9.6875V32.9375H13.5625V50.375ZM29.0625 40.6875H25.1875V32.9375H29.0625V40.6875ZM32.9375 29.0625V7.75H36.8125V29.0625H32.9375ZM52.3125 29.0625H48.4375V17.4375H52.3125V29.0625Z" fill="#765730"/>
</svg>
