<svg width="28" height="28" viewBox="0 0 28 28" fill="none" xmlns="http://www.w3.org/2000/svg">
<path d="M13.3665 9.41498L4.074 19.1677C3.91887 19.3305 3.83233 19.5467 3.83233 19.7715C3.83233 19.9963 3.91887 20.2125 4.074 20.3752L4.0845 20.3857C4.1597 20.4649 4.25022 20.5279 4.35056 20.571C4.45089 20.6141 4.55894 20.6363 4.66812 20.6363C4.77731 20.6363 4.88536 20.6141 4.98569 20.571C5.08602 20.5279 5.17655 20.4649 5.25175 20.3857L14.0017 11.2017L22.7482 20.3857C22.8235 20.4649 22.914 20.5279 23.0143 20.571C23.1146 20.6141 23.2227 20.6363 23.3319 20.6363C23.4411 20.6363 23.5491 20.6141 23.6494 20.571C23.7498 20.5279 23.8403 20.4649 23.9155 20.3857L23.926 20.3752C24.0811 20.2125 24.1677 19.9963 24.1677 19.7715C24.1677 19.5467 24.0811 19.3305 23.926 19.1677L14.6335 9.41498C14.5518 9.32921 14.4535 9.26093 14.3446 9.21427C14.2357 9.16761 14.1185 9.14355 14 9.14355C13.8815 9.14355 13.7643 9.16761 13.6554 9.21427C13.5465 9.26093 13.4482 9.32921 13.3665 9.41498Z" fill="black"/>
</svg>
