<svg width="28" height="28" viewBox="0 0 28 28" fill="none" xmlns="http://www.w3.org/2000/svg">
<path d="M14.6335 18.585L23.926 8.83227C24.0811 8.66954 24.1677 8.45334 24.1677 8.22852C24.1677 8.0037 24.0811 7.7875 23.926 7.62477L23.9155 7.61427C23.8403 7.53511 23.7498 7.47207 23.6494 7.429C23.5491 7.38593 23.4411 7.36371 23.3319 7.36371C23.2227 7.36371 23.1146 7.38593 23.0143 7.429C22.914 7.47207 22.8235 7.53511 22.7483 7.61427L13.9983 16.7983L5.25175 7.61427C5.17655 7.53511 5.08603 7.47207 4.98569 7.429C4.88536 7.38593 4.77732 7.36371 4.66813 7.36371C4.55894 7.36371 4.45089 7.38593 4.35056 7.429C4.25023 7.47207 4.15971 7.53511 4.0845 7.61427L4.074 7.62477C3.91887 7.7875 3.83233 8.0037 3.83233 8.22852C3.83233 8.45334 3.91887 8.66954 4.074 8.83227L13.3665 18.585C13.4482 18.6708 13.5465 18.7391 13.6554 18.7857C13.7643 18.8324 13.8815 18.8564 14 18.8564C14.1185 18.8564 14.2357 18.8324 14.3446 18.7857C14.4535 18.7391 14.5518 18.6708 14.6335 18.585Z" fill="black"/>
</svg>
