<svg width="24" height="24" viewBox="0 0 24 24" fill="none" xmlns="http://www.w3.org/2000/svg">
<path d="M10.155 14.773L10.146 14.752C10.0108 14.7151 9.87677 14.6741 9.74403 14.629L9.73403 14.625C8.35226 14.1529 7.15285 13.2603 6.3039 12.0722C5.45496 10.8842 4.99903 9.46024 5.00003 8.00004C4.99958 6.20815 5.68633 4.48431 6.91882 3.1836C8.15131 1.88289 9.83568 1.10436 11.625 1.00835C13.4143 0.91235 15.1723 1.50619 16.5369 2.66756C17.9015 3.82893 18.7687 5.46939 18.96 7.25104C19.004 7.66304 18.664 8.00004 18.25 8.00004C17.836 8.00004 17.505 7.66204 17.45 7.25204C17.317 6.28431 16.9287 5.36945 16.325 4.60149C15.7214 3.83352 14.9241 3.24015 14.0151 2.88237C13.1062 2.52458 12.1184 2.41528 11.1532 2.56569C10.188 2.71611 9.2803 3.12082 8.52333 3.73823C7.76636 4.35563 7.18745 5.16347 6.84609 6.07871C6.50473 6.99395 6.41323 7.98359 6.58101 8.9459C6.74878 9.90821 7.16977 10.8085 7.80071 11.5542C8.43165 12.2999 9.24979 12.8642 10.171 13.189C10.3566 12.7696 10.6807 12.4266 11.0891 12.2177C11.4974 12.0088 11.9652 11.9466 12.414 12.0415C12.8627 12.1364 13.2652 12.3827 13.554 12.7391C13.8427 13.0955 14.0002 13.5403 14 13.999C14 14.597 13.738 15.133 13.323 15.499C12.9583 15.8224 12.4875 16.0007 12 16C11.6056 16.001 11.2197 15.885 10.8913 15.6666C10.5629 15.4481 10.3066 15.1372 10.155 14.773ZM7.99703 15.5C7.26021 15.1058 6.58533 14.6055 5.99403 14.015C5.44617 14.0788 4.9408 14.3415 4.57393 14.7534C4.20707 15.1652 4.00426 15.6975 4.00403 16.249V16.827C4.00403 17.719 4.32203 18.583 4.90203 19.262C6.46803 21.096 8.85403 22.002 12 22.002C15.146 22.002 17.533 21.096 19.102 19.262C19.6834 18.5828 20.0029 17.7181 20.003 16.824V16.249C20.0032 15.9537 19.9451 15.6612 19.8322 15.3883C19.7193 15.1154 19.5538 14.8674 19.345 14.6585C19.1363 14.4495 18.8884 14.2838 18.6156 14.1706C18.3428 14.0575 18.0504 13.9992 17.755 13.999H15.5C15.5 14.537 15.38 15.045 15.163 15.499H17.755C17.9536 15.4996 18.1438 15.5788 18.2841 15.7194C18.4243 15.86 18.503 16.0505 18.503 16.249V16.824C18.5032 17.3605 18.3117 17.8793 17.963 18.287C16.706 19.755 14.739 20.501 12 20.501C9.26203 20.501 7.29603 19.755 6.04303 18.288C5.6946 17.8806 5.50311 17.3621 5.50303 16.826V16.249C5.50303 16.0501 5.58205 15.8594 5.7227 15.7187C5.86335 15.5781 6.05412 15.499 6.25303 15.499L7.99703 15.5ZM8.00003 8.00004C8.00021 7.31009 8.17885 6.63192 8.5186 6.03142C8.85834 5.43091 9.34764 4.9285 9.93895 4.57299C10.5303 4.21748 11.2035 4.02096 11.8932 4.00253C12.5829 3.98409 13.2656 4.14437 13.8751 4.46779C14.4845 4.79121 14.9999 5.26678 15.3713 5.84827C15.7426 6.42977 15.9572 7.09743 15.9943 7.78639C16.0313 8.47534 15.8895 9.16216 15.5826 9.78012C15.2758 10.3981 14.8143 10.9261 14.243 11.313C13.6143 10.7867 12.82 10.4988 12 10.5C12.6631 10.5 13.299 10.2366 13.7678 9.76781C14.2366 9.29897 14.5 8.66308 14.5 8.00004C14.5 7.337 14.2366 6.70111 13.7678 6.23227C13.299 5.76343 12.6631 5.50004 12 5.50004C11.337 5.50004 10.7011 5.76343 10.2323 6.23227C9.76342 6.70111 9.50003 7.337 9.50003 8.00004C9.50003 8.66308 9.76342 9.29897 10.2323 9.76781C10.7011 10.2366 11.337 10.5 12 10.5C11.146 10.5 10.364 10.806 9.75803 11.313C9.21567 10.9474 8.77161 10.454 8.46503 9.87622C8.15844 9.29845 7.99875 8.65411 8.00003 8.00004Z" fill="#8D775D"/>
</svg>
