<svg width="120" height="120" viewBox="0 0 120 120" fill="none" xmlns="http://www.w3.org/2000/svg">
<path d="M93.75 100H26.25C22.0993 100 18.1059 98.4122 15.0888 95.5616C12.0718 92.7111 10.26 88.814 10.025 84.67L10 83.75V31.25C9.99965 28.3994 11.0815 25.6549 13.0268 23.5712C14.9722 21.4876 17.6361 20.2201 20.48 20.025L21.25 20H83.75C86.6006 19.9996 89.3451 21.0815 91.4288 23.0268C93.5124 24.9722 94.7799 27.6361 94.975 30.48L95 31.25V35H98.75C101.601 34.9997 104.345 36.0815 106.429 38.0268C108.512 39.9722 109.78 42.6361 109.975 45.48L110 46.25V83.75C110 87.9007 108.412 91.8941 105.562 94.9112C102.711 97.9282 98.814 99.74 94.67 99.975L93.75 100ZM26.25 92.5H93.75C95.9467 92.4998 98.0631 91.6733 99.6785 90.1848C101.294 88.6962 102.29 86.6544 102.47 84.465L102.5 83.75V46.25C102.5 45.3438 102.172 44.4683 101.576 43.7853C100.981 43.1024 100.158 42.6582 99.26 42.535L98.75 42.5H95V81.25C95 82.1562 94.6718 83.0317 94.0762 83.7147C93.4805 84.3976 92.6578 84.8418 91.76 84.965L91.25 85C90.3438 85 89.4683 84.6718 88.7853 84.0762C88.1024 83.4805 87.6582 82.6578 87.535 81.76L87.5 81.25V31.25C87.5 30.3438 87.1718 29.4683 86.5762 28.7853C85.9805 28.1024 85.1578 27.6582 84.26 27.535L83.75 27.5H21.25C20.3438 27.5 19.4683 27.8282 18.7853 28.4238C18.1024 29.0195 17.6582 29.8422 17.535 30.74L17.5 31.25V83.75C17.5001 85.946 18.3259 88.0616 19.8134 89.677C21.3009 91.2923 23.3415 92.2893 25.53 92.47L26.25 92.5ZM61.23 72.5H76.26C77.2101 72.5003 78.1247 72.8612 78.819 73.5099C79.5132 74.1585 79.9354 75.0465 80.0001 75.9944C80.0649 76.9423 79.7674 77.8795 79.1678 78.6165C78.5683 79.3535 77.7113 79.8355 76.77 79.965L76.26 80H61.23C60.2799 79.9997 59.3653 79.6388 58.671 78.9901C57.9768 78.3415 57.5546 77.4535 57.4899 76.5056C57.4251 75.5577 57.7226 74.6205 58.3222 73.8835C58.9217 73.1465 59.7788 72.6645 60.72 72.535L61.23 72.5ZM46.215 55.025C47.2096 55.025 48.1634 55.4201 48.8666 56.1233C49.5699 56.8266 49.965 57.7804 49.965 58.775V76.25C49.965 77.2446 49.5699 78.1984 48.8666 78.9016C48.1634 79.6049 47.2096 80 46.215 80H28.74C27.7454 80 26.7916 79.6049 26.0884 78.9016C25.3851 78.1984 24.99 77.2446 24.99 76.25V58.775C24.99 57.7804 25.3851 56.8266 26.0884 56.1233C26.7916 55.4201 27.7454 55.025 28.74 55.025H46.215ZM42.465 62.525H32.49V72.5H42.465V62.525ZM61.23 55.025H76.26C77.2101 55.0253 78.1247 55.3862 78.819 56.0349C79.5132 56.6835 79.9354 57.5715 80.0001 58.5194C80.0649 59.4673 79.7674 60.4045 79.1678 61.1415C78.5683 61.8785 77.7113 62.3605 76.77 62.49L76.26 62.525H61.23C60.2731 62.5347 59.3487 62.1783 58.6461 61.5286C57.9435 60.879 57.5158 59.9853 57.4506 59.0306C57.3854 58.0759 57.6877 57.1324 58.2955 56.3933C58.9033 55.6542 59.7707 55.1754 60.72 55.055L61.23 55.025ZM28.74 37.51H76.26C77.2169 37.5003 78.1413 37.8567 78.8439 38.5064C79.5465 39.156 79.9742 40.0497 80.0394 41.0044C80.1046 41.9591 79.8023 42.9026 79.1945 43.6417C78.5867 44.3808 77.7193 44.8596 76.77 44.98L76.26 45.01H28.74C27.7899 45.0097 26.8753 44.6488 26.181 44.0001C25.4868 43.3515 25.0646 42.4635 24.9999 41.5156C24.9351 40.5677 25.2326 39.6305 25.8322 38.8935C26.4317 38.1565 27.2887 37.6745 28.23 37.545L28.74 37.51Z" fill="black"/>
</svg>
