<svg width="60" height="60" viewBox="0 0 60 60" fill="none" xmlns="http://www.w3.org/2000/svg">
<path d="M46.875 50H13.125C11.0497 50.0001 9.05293 49.2061 7.54442 47.7808C6.03592 46.3555 5.13 44.407 5.0125 42.335L5 41.875V15.625C4.99982 14.1997 5.54074 12.8274 6.51342 11.7856C7.48611 10.7438 8.81803 10.1101 10.24 10.0125L10.625 10H41.875C43.3003 9.99982 44.6726 10.5407 45.7144 11.5134C46.7562 12.4861 47.3899 13.818 47.4875 15.24L47.5 15.625V17.5H49.375C50.8003 17.4998 52.1726 18.0407 53.2144 19.0134C54.2562 19.9861 54.8899 21.318 54.9875 22.74L55 23.125V41.875C55.0001 43.9503 54.2061 45.9471 52.7808 47.4556C51.3555 48.9641 49.407 49.87 47.335 49.9875L46.875 50ZM13.125 46.25H46.875C47.9734 46.2499 49.0315 45.8367 49.8393 45.0924C50.647 44.3481 51.1452 43.3272 51.235 42.2325L51.25 41.875V23.125C51.25 22.6719 51.0859 22.2341 50.7881 21.8927C50.4903 21.5512 50.0789 21.3291 49.63 21.2675L49.375 21.25H47.5V40.625C47.5 41.0781 47.3359 41.5159 47.0381 41.8573C46.7403 42.1988 46.3289 42.4209 45.88 42.4825L45.625 42.5C45.1719 42.5 44.7341 42.3359 44.3927 42.0381C44.0512 41.7403 43.8291 41.3289 43.7675 40.88L43.75 40.625V15.625C43.75 15.1719 43.5859 14.7341 43.2881 14.3927C42.9903 14.0512 42.5789 13.8291 42.13 13.7675L41.875 13.75H10.625C10.1719 13.75 9.73414 13.9141 9.39267 14.2119C9.0512 14.5097 8.82912 14.9211 8.7675 15.37L8.75 15.625V41.875C8.75004 42.973 9.16293 44.0308 9.9067 44.8385C10.6505 45.6462 11.6707 46.1446 12.765 46.235L13.125 46.25ZM30.615 36.25H38.13C38.6051 36.2501 39.0624 36.4306 39.4095 36.7549C39.7566 37.0793 39.9677 37.5232 40.0001 37.9972C40.0324 38.4712 39.8837 38.9397 39.5839 39.3082C39.2841 39.6768 38.8556 39.9177 38.385 39.9825L38.13 40H30.615C30.1399 39.9999 29.6826 39.8194 29.3355 39.4951C28.9884 39.1707 28.7773 38.7268 28.7449 38.2528C28.7126 37.7788 28.8613 37.3103 29.1611 36.9418C29.4609 36.5732 29.8894 36.3323 30.36 36.2675L30.615 36.25ZM23.1075 27.5125C23.6048 27.5125 24.0817 27.71 24.4333 28.0617C24.785 28.4133 24.9825 28.8902 24.9825 29.3875V38.125C24.9825 38.6223 24.785 39.0992 24.4333 39.4508C24.0817 39.8025 23.6048 40 23.1075 40H14.37C13.8727 40 13.3958 39.8025 13.0442 39.4508C12.6925 39.0992 12.495 38.6223 12.495 38.125V29.3875C12.495 28.8902 12.6925 28.4133 13.0442 28.0617C13.3958 27.71 13.8727 27.5125 14.37 27.5125H23.1075ZM21.2325 31.2625H16.245V36.25H21.2325V31.2625ZM30.615 27.5125H38.13C38.6051 27.5126 39.0624 27.6931 39.4095 28.0174C39.7566 28.3418 39.9677 28.7857 40.0001 29.2597C40.0324 29.7337 39.8837 30.2022 39.5839 30.5707C39.2841 30.9393 38.8556 31.1802 38.385 31.245L38.13 31.2625H30.615C30.1366 31.2674 29.6744 31.0891 29.323 30.7643C28.9717 30.4395 28.7579 29.9927 28.7253 29.5153C28.6927 29.038 28.8438 28.5662 29.1477 28.1966C29.4516 27.8271 29.8853 27.5877 30.36 27.5275L30.615 27.5125ZM14.37 18.755H38.13C38.6084 18.7501 39.0706 18.9284 39.422 19.2532C39.7733 19.578 39.9871 20.0248 40.0197 20.5022C40.0523 20.9795 39.9012 21.4513 39.5973 21.8209C39.2934 22.1904 38.8597 22.4298 38.385 22.49L38.13 22.505H14.37C13.8949 22.5049 13.4376 22.3244 13.0905 22.0001C12.7434 21.6757 12.5323 21.2318 12.4999 20.7578C12.4676 20.2838 12.6163 19.8153 12.9161 19.4468C13.2159 19.0782 13.6444 18.8373 14.115 18.7725L14.37 18.755Z" fill="black"/>
</svg>
