<svg width="37" height="37" viewBox="0 0 37 37" fill="none" xmlns="http://www.w3.org/2000/svg">
<g clip-path="url(#clip0_6_8293)">
<rect width="37" height="37" rx="7" fill="#F3F2F0"/>
<path fill-rule="evenodd" clip-rule="evenodd" d="M18.1323 7.80264C18.3978 7.65523 18.6965 7.57788 19.0001 7.57788C19.3037 7.57788 19.6024 7.65523 19.8678 7.80264L27.6678 12.136C28.2355 12.4512 28.5876 13.0492 28.5876 13.6992V22.3009C28.5876 22.9509 28.2355 23.5489 27.6678 23.8641L19.8678 28.1975C19.6024 28.3449 19.3037 28.4222 19.0001 28.4222C18.6965 28.4222 18.3978 28.3449 18.1323 28.1975L10.3323 23.8641C10.0535 23.7093 9.8212 23.4827 9.65947 23.2078C9.49775 22.933 9.41251 22.6198 9.4126 22.3009V13.6992C9.4126 13.0492 9.76468 12.4512 10.3323 12.136L18.1323 7.80264ZM19.0792 9.22397C19.055 9.2105 19.0278 9.20343 19.0001 9.20343C18.9724 9.20343 18.9452 9.2105 18.921 9.22397L11.121 13.5573C11.0959 13.5713 11.0749 13.5917 11.0603 13.6165C11.0456 13.6412 11.0378 13.6694 11.0376 13.6981V22.302C11.0376 22.3605 11.0701 22.4146 11.121 22.4428L18.921 26.7761C18.9452 26.7896 18.9724 26.7967 19.0001 26.7967C19.0278 26.7967 19.055 26.7896 19.0792 26.7761L26.8792 22.4428C26.9043 22.4288 26.9253 22.4084 26.9399 22.3837C26.9546 22.3589 26.9624 22.3307 26.9626 22.302V13.6992C26.9626 13.6703 26.9549 13.6419 26.9402 13.6169C26.9255 13.592 26.9045 13.5714 26.8792 13.5573L19.0792 9.22397Z" fill="#897262"/>
<path fill-rule="evenodd" clip-rule="evenodd" d="M13.8542 18.0001C13.8542 16.6353 14.3964 15.3265 15.3614 14.3614C16.3265 13.3964 17.6353 12.8542 19.0001 12.8542C20.3648 12.8542 21.6737 13.3964 22.6387 14.3614C23.6038 15.3265 24.1459 16.6353 24.1459 18.0001C24.1459 19.3648 23.6038 20.6737 22.6387 21.6387C21.6737 22.6038 20.3648 23.1459 19.0001 23.1459C17.6353 23.1459 16.3265 22.6038 15.3614 21.6387C14.3964 20.6737 13.8542 19.3648 13.8542 18.0001ZM19.0001 14.4792C18.0663 14.4792 17.1708 14.8502 16.5105 15.5105C15.8502 16.1708 15.4792 17.0663 15.4792 18.0001C15.4792 18.9339 15.8502 19.8294 16.5105 20.4897C17.1708 21.15 18.0663 21.5209 19.0001 21.5209C19.9339 21.5209 20.8294 21.15 21.4897 20.4897C22.15 19.8294 22.5209 18.9339 22.5209 18.0001C22.5209 17.0663 22.15 16.1708 21.4897 15.5105C20.8294 14.8502 19.9339 14.4792 19.0001 14.4792Z" fill="#897262"/>
</g>
<defs>
<clipPath id="clip0_6_8293">
<rect width="37" height="37" fill="white"/>
</clipPath>
</defs>
</svg>
