<svg width="24" height="19" viewBox="0 0 24 19" fill="none" xmlns="http://www.w3.org/2000/svg">
<path fill-rule="evenodd" clip-rule="evenodd" d="M10.1317 4.91989C9.99993 4.83399 9.84953 4.78761 9.69587 4.78548C9.5422 4.78334 9.39077 4.82554 9.25703 4.90775C9.12328 4.98995 9.01203 5.10923 8.93462 5.25341C8.85721 5.39758 8.81642 5.56148 8.81641 5.72837V13.2726C8.81642 13.4395 8.85721 13.6034 8.93462 13.7475C9.01203 13.8917 9.12328 14.011 9.25703 14.0932C9.39077 14.1754 9.5422 14.2176 9.69587 14.2155C9.84953 14.2133 9.99993 14.167 10.1317 14.0811L15.9208 10.309C16.0493 10.2252 16.1557 10.1067 16.2295 9.96498C16.3033 9.8233 16.3421 9.66327 16.3421 9.50048C16.3421 9.33768 16.3033 9.17765 16.2295 9.03598C16.1557 8.8943 16.0493 8.77579 15.9208 8.69199L10.1317 4.91989ZM13.7858 9.50048L10.5531 11.6066V7.39438L13.7858 9.50048Z" fill="#8D775D"/>
<path fill-rule="evenodd" clip-rule="evenodd" d="M17.8242 0.246989C13.9476 -0.0823296 10.0532 -0.0823296 6.17654 0.246989L3.58187 0.468286C2.8152 0.533186 2.09058 0.874829 1.52342 1.43879C0.95627 2.00276 0.579203 2.75661 0.452286 3.58027C-0.150762 7.49956 -0.150762 11.5004 0.452286 15.4196C0.579203 16.2433 0.95627 16.9972 1.52342 17.5611C2.09058 18.1251 2.8152 18.4667 3.58187 18.5316L6.17538 18.7529C10.0529 19.0824 13.9478 19.0824 17.8254 18.7529L20.4189 18.5316C21.1855 18.4667 21.9102 18.1251 22.4773 17.5611C23.0445 16.9972 23.4215 16.2433 23.5485 15.4196C24.1505 11.5004 24.1505 7.49949 23.5485 3.58027C23.4215 2.75661 23.0445 2.00276 22.4773 1.43879C21.9102 0.874829 21.1855 0.533186 20.4189 0.468286L17.8242 0.246989ZM6.31201 2.12801C10.0992 1.80622 13.9038 1.80622 17.691 2.12801L20.2846 2.34805C21.0672 2.41469 21.7075 3.05218 21.836 3.8921C22.4072 7.60494 22.4072 11.395 21.836 15.1078C21.7733 15.5164 21.5865 15.8904 21.3053 16.1702C21.0241 16.45 20.6648 16.6196 20.2846 16.6519L17.691 16.8719C13.9038 17.1938 10.0992 17.1938 6.31201 16.8719L3.71849 16.6519C3.33826 16.6196 2.97892 16.45 2.69774 16.1702C2.41656 15.8904 2.22972 15.5164 2.16702 15.1078C1.59583 11.395 1.59583 7.60494 2.16702 3.8921C2.22972 3.48355 2.41656 3.10956 2.69774 2.82972C2.97892 2.54989 3.33826 2.38032 3.71849 2.34805L6.31201 2.12801Z" fill="#8D775D"/>
</svg>
