<svg width="24" height="19" viewBox="0 0 24 19" fill="none" xmlns="http://www.w3.org/2000/svg">
<path fill-rule="evenodd" clip-rule="evenodd" d="M10.1317 4.75397C9.99993 4.67098 9.84953 4.62616 9.69587 4.6241C9.5422 4.62204 9.39077 4.66281 9.25703 4.74224C9.12328 4.82168 9.01203 4.93694 8.93462 5.07625C8.85721 5.21556 8.81642 5.37393 8.81641 5.53519V12.825C8.81642 12.9862 8.85721 13.1446 8.93462 13.2839C9.01203 13.4232 9.12328 13.5385 9.25703 13.6179C9.39077 13.6973 9.5422 13.7381 9.69587 13.736C9.84953 13.734 9.99993 13.6892 10.1317 13.6062L15.9208 9.96129C16.0493 9.88032 16.1557 9.76581 16.2295 9.62891C16.3033 9.49201 16.3421 9.33738 16.3421 9.18007C16.3421 9.02277 16.3033 8.86814 16.2295 8.73124C16.1557 8.59434 16.0493 8.47983 15.9208 8.39885L10.1317 4.75397ZM13.7858 9.18007L10.5531 11.2151V7.14501L13.7858 9.18007Z" fill="#8D775D"/>
<path fill-rule="evenodd" clip-rule="evenodd" d="M17.8242 0.238658C13.9476 -0.0795528 10.0532 -0.0795528 6.17654 0.238658L3.58187 0.452492C2.8152 0.515203 2.09058 0.845323 1.52342 1.39027C0.95627 1.93521 0.579203 2.66364 0.452286 3.45952C-0.150762 7.24662 -0.150762 11.1125 0.452286 14.8996C0.579203 15.6955 0.95627 16.4239 1.52342 16.9688C2.09058 17.5138 2.8152 17.8439 3.58187 17.9066L6.17538 18.1204C10.0529 18.4388 13.9478 18.4388 17.8254 18.1204L20.4189 17.9066C21.1855 17.8439 21.9102 17.5138 22.4773 16.9688C23.0445 16.4239 23.4215 15.6955 23.5485 14.8996C24.1505 11.1126 24.1505 7.24655 23.5485 3.45952C23.4215 2.66364 23.0445 1.93521 22.4773 1.39027C21.9102 0.845323 21.1855 0.515203 20.4189 0.452492L17.8242 0.238658ZM6.31201 2.05624C10.0992 1.7453 13.9038 1.7453 17.691 2.05624L20.2846 2.26886C21.0672 2.33325 21.7075 2.94923 21.836 3.76083C22.4072 7.34845 22.4072 11.0107 21.836 14.5983C21.7733 14.993 21.5865 15.3544 21.3053 15.6248C21.0241 15.8952 20.6648 16.0591 20.2846 16.0902L17.691 16.3029C13.9038 16.6139 10.0992 16.6139 6.31201 16.3029L3.71849 16.0902C3.33826 16.0591 2.97892 15.8952 2.69774 15.6248C2.41656 15.3544 2.22972 14.993 2.16702 14.5983C1.59583 11.0107 1.59583 7.34845 2.16702 3.76083C2.22972 3.36606 2.41656 3.00468 2.69774 2.73428C2.97892 2.46389 3.33826 2.30004 3.71849 2.26886L6.31201 2.05624Z" fill="#8D775D"/>
</svg>
