<svg width="42" height="46" viewBox="0 0 42 46" fill="none" xmlns="http://www.w3.org/2000/svg">
<circle cx="21" cy="21" r="21" fill="#D9D9D9"/>
<path d="M21.5 25C22.8924 25 24.2277 24.4469 25.2123 23.4623C26.1969 22.4777 26.75 21.1424 26.75 19.75C26.75 18.3576 26.1969 17.0223 25.2123 16.0377C24.2277 15.0531 22.8924 14.5 21.5 14.5C20.1076 14.5 18.7723 15.0531 17.7877 16.0377C16.8031 17.0223 16.25 18.3576 16.25 19.75C16.25 21.1424 16.8031 22.4777 17.7877 23.4623C18.7723 24.4469 20.1076 25 21.5 25ZM10.0638 36.3645C9.90213 36.7983 9.88464 37.2726 10.0139 37.7171C10.1431 38.1616 10.4122 38.5525 10.7813 38.832C13.8459 41.2145 17.6183 42.5054 21.5 42.5C25.5425 42.5 29.2665 41.128 32.2292 38.825C32.9818 38.2422 33.2862 37.2447 32.9432 36.3575C32.0547 34.044 30.4855 32.0544 28.4428 30.6511C26.4001 29.2479 23.9799 28.497 21.5017 28.4976C19.0235 28.4981 16.6036 29.2501 14.5616 30.6543C12.5196 32.0585 10.9513 34.0489 10.0638 36.3628" fill="black"/>
</svg>
