<svg width="24" height="24" viewBox="0 0 24 24" fill="none" xmlns="http://www.w3.org/2000/svg">
<path d="M11.95 18C12.3 18 12.596 17.879 12.838 17.637C13.08 17.395 13.2007 17.0993 13.2 16.75C13.2 16.4 13.0793 16.104 12.838 15.862C12.5967 15.62 12.3007 15.4993 11.95 15.5C11.6 15.5 11.3043 15.621 11.063 15.863C10.8217 16.105 10.7007 16.4007 10.7 16.75C10.7 17.1 10.821 17.396 11.063 17.638C11.305 17.88 11.6007 18.0007 11.95 18ZM11.05 14.15H12.9C12.9 13.6 12.9627 13.1667 13.088 12.85C13.2133 12.5333 13.5673 12.1 14.15 11.55C14.5833 11.1167 14.925 10.704 15.175 10.312C15.425 9.92 15.55 9.44933 15.55 8.9C15.55 7.96667 15.2083 7.25 14.525 6.75C13.8417 6.25 13.0333 6 12.1 6C11.15 6 10.3793 6.25 9.788 6.75C9.19667 7.25 8.784 7.85 8.55 8.55L10.2 9.2C10.2833 8.9 10.471 8.575 10.763 8.225C11.055 7.875 11.5007 7.7 12.1 7.7C12.6333 7.7 13.0333 7.846 13.3 8.138C13.5667 8.43 13.7 8.75067 13.7 9.1C13.7 9.43333 13.6 9.746 13.4 10.038C13.2 10.33 12.95 10.6007 12.65 10.85C11.9167 11.5 11.4667 11.9917 11.3 12.325C11.1333 12.6583 11.05 13.2667 11.05 14.15ZM12 22C10.6167 22 9.31667 21.7377 8.1 21.213C6.88333 20.6883 5.825 19.9757 4.925 19.075C4.025 18.175 3.31267 17.1167 2.788 15.9C2.26333 14.6833 2.00067 13.3833 2 12C2 10.6167 2.26267 9.31667 2.788 8.1C3.31333 6.88333 4.02567 5.825 4.925 4.925C5.825 4.025 6.88333 3.31267 8.1 2.788C9.31667 2.26333 10.6167 2.00067 12 2C13.3833 2 14.6833 2.26267 15.9 2.788C17.1167 3.31333 18.175 4.02567 19.075 4.925C19.975 5.825 20.6877 6.88333 21.213 8.1C21.7383 9.31667 22.0007 10.6167 22 12C22 13.3833 21.7373 14.6833 21.212 15.9C20.6867 17.1167 19.9743 18.175 19.075 19.075C18.175 19.975 17.1167 20.6877 15.9 21.213C14.6833 21.7383 13.3833 22.0007 12 22ZM12 20C14.2333 20 16.125 19.225 17.675 17.675C19.225 16.125 20 14.2333 20 12C20 9.76667 19.225 7.875 17.675 6.325C16.125 4.775 14.2333 4 12 4C9.76667 4 7.875 4.775 6.325 6.325C4.775 7.875 4 9.76667 4 12C4 14.2333 4.775 16.125 6.325 17.675C7.875 19.225 9.76667 20 12 20Z" fill="#8D775D"/>
</svg>
