<svg width="28" height="28" viewBox="0 0 28 28" fill="none" xmlns="http://www.w3.org/2000/svg">
<path d="M23.625 21.875C23.625 23.3249 19.3156 24.5 14 24.5C8.68438 24.5 4.375 23.3249 4.375 21.875M23.625 21.875C23.625 20.5887 20.23 19.5177 15.75 19.2937M23.625 21.875C23.625 20.125 23.45 16.45 21 14C18.3872 11.3872 20.5511 7.50137 16.625 6.4155M4.375 21.875C4.375 20.5887 7.77 19.5177 12.25 19.2937M4.375 21.875C4.375 20.125 4.55 16.45 7 14C9.61275 11.3872 7.44888 7.50137 11.375 6.4155M15.75 19.2937C14.5841 19.2354 13.4159 19.2354 12.25 19.2937M15.75 19.2937V20.125C15.75 20.5891 15.5656 21.0342 15.2374 21.3624C14.9092 21.6906 14.4641 21.875 14 21.875C13.5359 21.875 13.0908 21.6906 12.7626 21.3624C12.4344 21.0342 12.25 20.5891 12.25 20.125V19.2937M16.625 6.4155C15.9486 6.22912 15.0929 6.125 14 6.125C12.9071 6.125 12.0514 6.23087 11.375 6.4155M16.625 6.4155V6.125C16.625 5.42881 16.3484 4.76113 15.8562 4.26884C15.3639 3.77656 14.6962 3.5 14 3.5C13.3038 3.5 12.6361 3.77656 12.1438 4.26884C11.6516 4.76113 11.375 5.42881 11.375 6.125V6.4155" stroke="#897262" stroke-width="2" stroke-linecap="round" stroke-linejoin="round"/>
</svg>
