<svg width="24" height="24" viewBox="0 0 24 24" fill="none" xmlns="http://www.w3.org/2000/svg">
<path d="M13.991 13H9.991C9.72578 13 9.47143 13.1054 9.28389 13.2929C9.09635 13.4804 8.991 13.7348 8.991 14C8.991 14.2652 9.09635 14.5196 9.28389 14.7071C9.47143 14.8946 9.72578 15 9.991 15H13.991C14.2562 15 14.5106 14.8946 14.6981 14.7071C14.8856 14.5196 14.991 14.2652 14.991 14C14.991 13.7348 14.8856 13.4804 14.6981 13.2929C14.5106 13.1054 14.2562 13 13.991 13ZM9.991 11H10.991C11.2562 11 11.5106 10.8946 11.6981 10.7071C11.8856 10.5196 11.991 10.2652 11.991 10C11.991 9.73478 11.8856 9.48043 11.6981 9.29289C11.5106 9.10536 11.2562 9 10.991 9H9.991C9.72578 9 9.47143 9.10536 9.28389 9.29289C9.09635 9.48043 8.991 9.73478 8.991 10C8.991 10.2652 9.09635 10.5196 9.28389 10.7071C9.47143 10.8946 9.72578 11 9.991 11ZM15.991 10V9C15.9899 7.93946 15.5682 6.92266 14.8183 6.17274C14.0683 5.42283 13.0515 5.00106 11.991 5H9.991C8.6654 5.00159 7.39456 5.52888 6.45722 6.46622C5.51988 7.40356 4.99259 8.67441 4.991 10V14C4.99259 15.3256 5.51988 16.5964 6.45722 17.5338C7.39456 18.4711 8.6654 18.9984 9.991 19H13.991C15.3166 18.9984 16.5874 18.4711 17.5248 17.5338C18.4621 16.5964 18.9894 15.3256 18.991 14V13C18.9897 12.2048 18.6732 11.4425 18.1109 10.8801C17.5485 10.3178 16.7862 10.0013 15.991 10ZM16.991 14C16.9902 14.7954 16.6739 15.558 16.1114 16.1204C15.549 16.6829 14.7864 16.9992 13.991 17H9.991C9.19559 16.9992 8.43299 16.6829 7.87055 16.1204C7.30812 15.558 6.99179 14.7954 6.991 14V10C6.99179 9.20459 7.30812 8.44199 7.87055 7.87956C8.43299 7.31712 9.19559 7.00079 9.991 7H11.991C12.5212 7.00079 13.0294 7.21176 13.4043 7.58666C13.7792 7.96156 13.9902 8.46981 13.991 9V10C13.9918 10.5302 14.2028 11.0384 14.5777 11.4133C14.9526 11.7882 15.4608 11.9992 15.991 12C16.2562 12 16.5106 12.1054 16.6981 12.2929C16.8856 12.4804 16.991 12.7348 16.991 13V14ZM19.991 1H3.991C3.19559 1.00079 2.43299 1.31712 1.87055 1.87956C1.30812 2.44199 0.991792 3.20459 0.990997 4V20C0.991792 20.7954 1.30812 21.558 1.87055 22.1204C2.43299 22.6829 3.19559 22.9992 3.991 23H19.991C20.7864 22.9992 21.549 22.6829 22.1114 22.1204C22.6739 21.558 22.9902 20.7954 22.991 20V4C22.9902 3.20459 22.6739 2.44199 22.1114 1.87956C21.549 1.31712 20.7864 1.00079 19.991 1ZM20.991 20C20.991 20.2652 20.8856 20.5196 20.6981 20.7071C20.5106 20.8946 20.2562 21 19.991 21H3.991C3.72578 21 3.47143 20.8946 3.28389 20.7071C3.09635 20.5196 2.991 20.2652 2.991 20V4C2.991 3.73478 3.09635 3.48043 3.28389 3.29289C3.47143 3.10536 3.72578 3 3.991 3H19.991C20.2562 3 20.5106 3.10536 20.6981 3.29289C20.8856 3.48043 20.991 3.73478 20.991 4V20Z" fill="#8D775D"/>
</svg>
