<svg width="81" height="70" viewBox="0 0 81 70" fill="none" xmlns="http://www.w3.org/2000/svg">
<path d="M76.9476 3.05176e-05L4.04549 3.05176e-05C3.30739 0.00268555 2.5839 0.236855 1.95289 0.677307C1.32188 1.11775 0.807251 1.74782 0.464394 2.49967C0.121536 3.25153 -0.0365677 4.09672 0.0071106 4.94425C0.0507812 5.79178 0.294571 6.60955 0.712242 7.30956L37.1633 67.8729C38.674 70.384 42.311 70.384 43.8257 67.8729L80.2768 7.30956C80.6987 6.61102 80.9461 5.79282 80.9921 4.94389C81.0382 4.09495 80.8811 3.24773 80.5379 2.49427C80.1948 1.74082 79.6787 1.10995 79.0457 0.670212C78.4127 0.230476 77.687 -0.00131226 76.9476 3.05176e-05Z" fill="#CB4E4E"/>
</svg>
