<svg width="81" height="70" viewBox="0 0 81 70" fill="none" xmlns="http://www.w3.org/2000/svg">
<path d="M4.05244 69.7562H76.9545C77.6926 69.7535 78.4161 69.5194 79.0471 69.0789C79.6781 68.6385 80.1927 68.0084 80.5356 67.2566C80.8785 66.5047 81.0366 65.6595 80.9929 64.812C80.9492 63.9644 80.7054 63.1467 80.2878 62.4467L43.8367 1.88329C42.326 -0.627763 38.689 -0.627763 37.1743 1.88329L0.723244 62.4467C0.301323 63.1452 0.0538985 63.9634 0.00785287 64.8123C-0.0381927 65.6613 0.118902 66.5085 0.462068 67.262C0.805235 68.0154 1.32135 68.6463 1.95433 69.086C2.58732 69.5257 3.31297 69.7575 4.05244 69.7562Z" fill="#4ECB71"/>
</svg>
